<svg version="1.1" id="Layer_1" xmlns="http://www.w3.org/2000/svg" xmlns:xlink="http://www.w3.org/1999/xlink" x="0px" y="0px"
	 width="100%" viewBox="0 0 441 768" enable-background="new 0 0 441 768" xml:space="preserve">
<path fill="#01CEE9" opacity="1.000000" stroke="none" 
	d="
M335.072296,385.969788 
	C346.961273,399.206207 358.859955,412.433990 370.736267,425.681732 
	C380.684143,436.778381 390.610596,447.894226 400.531860,459.014648 
	C401.525696,460.128571 402.568268,461.243195 403.328644,462.512878 
	C405.532532,466.192963 403.832520,469.585510 399.630646,470.025513 
	C398.641907,470.128998 397.634399,470.058838 396.635529,470.058807 
	C359.841797,470.057861 323.047882,469.991180 286.254608,470.120575 
	C280.457947,470.140991 276.136627,468.220520 272.411011,463.764069 
	C263.127533,452.659485 253.563278,441.789642 243.931198,430.308472 
	C243.471420,429.596680 243.192169,429.401978 242.912918,429.207306 
	C242.912918,429.207306 242.830322,429.163788 242.745667,428.813232 
	C241.968155,427.766785 241.275314,427.070923 240.582458,426.375092 
	C240.582458,426.375092 240.586319,426.167847 240.607727,425.917633 
	C239.101776,424.155304 237.574417,422.643219 236.047058,421.131104 
	C236.047058,421.131104 235.857239,421.080200 235.893524,420.706726 
	C235.943054,420.147278 235.956268,419.961243 236.439056,419.797180 
	C256.383636,419.818207 275.863495,419.565155 295.331177,419.942322 
	C302.944275,420.089844 308.142822,417.204163 312.803925,411.468628 
	C319.916321,402.716766 327.619812,394.445282 335.072296,385.969788 
z"/>
<path fill="#0171E1" opacity="1.000000" stroke="none" 
	d="
M236.077972,349.408691 
	C239.346054,346.071106 242.780548,342.879150 245.851700,339.369293 
	C255.888916,327.898193 265.764038,316.285370 275.786530,304.801300 
	C277.058594,303.343719 278.835785,302.326965 280.978577,301.358032 
	C321.886597,301.376343 362.195007,301.142609 402.503418,300.908875 
	C402.724518,302.547211 403.738190,304.761383 403.035522,305.728455 
	C399.064606,311.193390 394.783813,316.445374 390.415344,321.606323 
	C384.112549,329.052551 377.629761,336.346161 371.250427,343.727966 
	C363.706482,352.457367 356.194550,361.214417 348.661804,369.953522 
	C344.365509,374.937805 340.055359,379.910156 335.254883,384.745972 
	C327.497498,376.714050 320.020660,369.009399 313.043518,360.876038 
	C307.335144,354.221710 301.693481,349.333252 291.741943,349.779755 
	C273.264343,350.608856 254.720184,349.954132 236.181946,349.787720 
	C236.160172,349.658203 236.077988,349.408691 236.077972,349.408691 
z"/>
<path fill="#004EBB" opacity="1.000000" stroke="none" 
	d="
M236.203735,349.917236 
	C254.720184,349.954132 273.264343,350.608856 291.741943,349.779755 
	C301.693481,349.333252 307.335144,354.221710 313.043518,360.876038 
	C320.020660,369.009399 327.497498,376.714050 334.950012,384.893524 
	C335.141754,385.182983 335.138428,385.579315 335.105347,385.774536 
	C327.619812,394.445282 319.916321,402.716766 312.803925,411.468628 
	C308.142822,417.204163 302.944275,420.089844 295.331177,419.942322 
	C275.863495,419.565155 256.383636,419.818207 236.211639,419.597412 
	C234.593140,418.945251 233.671646,418.514893 232.692078,417.760712 
	C228.097946,412.155487 223.684219,406.762390 218.992203,401.623383 
	C214.078278,396.241302 208.897095,391.103210 203.832748,385.858459 
	C203.832748,385.858459 203.907516,385.440491 204.265228,385.056732 
	C210.711243,377.849976 216.844437,371.066315 222.870590,364.188873 
	C226.365845,360.199860 229.689026,356.060089 233.348206,351.890656 
	C234.108978,351.266846 234.611191,350.740570 235.113403,350.214294 
	C235.113419,350.214294 235.144562,350.150391 235.437347,350.135620 
	C235.887985,350.052979 236.045853,349.985107 236.203735,349.917236 
z"/>
<path fill="#0171E1" opacity="1.000000" stroke="none" 
	d="
M203.524017,386.024597 
	C208.897095,391.103210 214.078278,396.241302 218.992203,401.623383 
	C223.684219,406.762390 228.097946,412.155487 232.251465,417.746887 
	C217.994476,418.054626 204.119675,418.000366 190.246033,418.102570 
	C188.001358,418.119080 185.761795,418.830719 183.519867,419.221039 
	C182.492737,418.908020 181.465622,418.595001 180.266525,417.604309 
	C180.096817,415.407471 180.099075,413.888275 180.101334,412.369110 
	C187.805984,403.642975 195.510635,394.916870 203.524017,386.024597 
z"/>
<path fill="#01CEE9" opacity="1.000000" stroke="none" 
	d="
M233.089630,351.988159 
	C229.689026,356.060089 226.365845,360.199860 222.870590,364.188873 
	C216.844437,371.066315 210.711243,377.849976 204.348557,384.861450 
	C197.473145,377.258301 190.872131,369.466705 184.095505,361.021057 
	C183.662811,359.756622 183.424805,359.137360 183.145004,358.537628 
	C182.360825,356.856842 181.559372,355.184143 180.764740,353.508240 
	C182.714035,352.982544 184.660263,352.014679 186.613098,352.001221 
	C202.104568,351.894440 217.597305,351.969177 233.089630,351.988159 
z"/>
<path fill="#37CBDF" opacity="1.000000" stroke="none" 
	d="
M233.348206,351.890686 
	C217.597305,351.969177 202.104568,351.894440 186.613098,352.001221 
	C184.660263,352.014679 182.714035,352.982544 180.764740,353.508240 
	C181.559372,355.184143 182.360825,356.856842 183.145004,358.537628 
	C183.424805,359.137360 183.662811,359.756622 183.944702,360.725616 
	C182.964218,360.242126 181.569046,359.591217 181.041168,358.514954 
	C180.155640,356.709412 178.912003,354.255402 179.523407,352.781067 
	C180.088516,351.418427 182.882858,350.270142 184.708176,350.251129 
	C201.190613,350.079437 217.675858,350.177124 234.636841,350.205078 
	C234.611191,350.740570 234.108978,351.266846 233.348206,351.890686 
z"/>
<path fill="#1669B5" opacity="1.000000" stroke="none" 
	d="
M402.173401,300.583435 
	C362.195007,301.142609 321.886597,301.376343 281.324066,301.332397 
	C282.453674,300.691620 283.836945,300.013458 285.221222,300.011292 
	C323.442230,299.951050 361.663361,299.958008 399.884460,299.969147 
	C400.537476,299.969330 401.190399,300.157532 402.173401,300.583435 
z"/>
<path fill="#1F85CC" opacity="1.000000" stroke="none" 
	d="
M183.926788,419.403473 
	C185.761795,418.830719 188.001358,418.119080 190.246033,418.102570 
	C204.119675,418.000366 217.994476,418.054626 232.309509,418.070740 
	C233.671646,418.514893 234.593140,418.945251 235.742065,419.575439 
	C235.956268,419.961243 235.943054,420.147278 235.893677,420.608459 
	C233.950195,420.514801 232.045837,419.843689 230.135086,419.824982 
	C214.868637,419.675568 199.600998,419.649658 183.926788,419.403473 
z"/>
<path fill="#1F85CC" opacity="1.000000" stroke="none" 
	d="
M236.130646,421.434753 
	C237.574417,422.643219 239.101776,424.155304 240.634476,426.017761 
	C239.164627,424.824860 237.689423,423.281616 236.130646,421.434753 
z"/>
<path fill="#1F85CC" opacity="1.000000" stroke="none" 
	d="
M179.892548,412.613953 
	C180.099075,413.888275 180.096817,415.407471 180.093765,417.308411 
	C179.956573,416.079712 179.820175,414.469269 179.892548,412.613953 
z"/>
<path fill="#1F85CC" opacity="1.000000" stroke="none" 
	d="
M240.681000,426.658875 
	C241.275314,427.070923 241.968155,427.766785 242.730453,428.769104 
	C242.126450,428.364594 241.453003,427.653656 240.681000,426.658875 
z"/>
<path fill="#1F85CC" opacity="1.000000" stroke="none" 
	d="
M242.945862,429.382446 
	C243.192169,429.401978 243.471420,429.596680 243.754013,429.967407 
	C243.497849,429.948181 243.238327,429.752869 242.945862,429.382446 
z"/>
<path fill="#37CBDF" opacity="1.000000" stroke="none" 
	d="
M236.181946,349.787720 
	C236.045853,349.985107 235.887985,350.052979 235.472839,350.137177 
	C235.283966,349.874603 235.446838,349.671478 235.891083,349.476440 
	C236.077988,349.408691 236.160172,349.658203 236.181946,349.787720 
z"/>
</svg>